<?xml version="1.0" encoding="iso-8859-1"?>
<svg xmlns="http://www.w3.org/2000/svg" xmlns:xlink="http://www.w3.org/1999/xlink" version="1.1" viewBox="0 0 512 512" enable-background="new 0 0 512 512" width="512px" height="512px">
  <g>
    <path d="m256,231.9c-10.5,0-19,8.5-19,19s8.5,19 19,19 19-8.5 19-19-8.5-19-19-19z" fill="#4C37A8"/>
    <path d="M374,0H138C61.8,0,0,61.8,0,138v236c0,76.2,61.8,138,138,138h236c76.2,0,138-61.8,138-138V138C512,61.8,450.2,0,374,0z    M375,320.3c0,30.8-23.4,54.7-53.2,54.7H196.2c-37.5,0-59.2-19.5-59.2-54V197.5c0-35.9,21.3-60.5,52.8-60.5h136.6   c23.3,0,48.6,22.8,48.6,59V320.3z" fill="#4C37A8"/>
    <path d="M308.93,222c4.696,8.582,7.37,18.428,7.37,28.9c0,33.3-27.1,60.3-60.3,60.3s-60.3-26.95-60.3-60.25   c0-10.513,2.696-19.95,7.427-28.95H147v98.9c0,36.6,26.8,44.1,49.2,44.1h125.7c24.6,0,43.1-19.1,43.1-44.8V222H308.93z" fill="#4C37A8"/>
    <path d="m256,200.6c-27.8,0-50.4,22.6-50.4,50.4s22.6,50.3 50.4,50.3 50.4-22.6 50.4-50.4-22.6-50.3-50.4-50.3zm0,88.4c-21,0-38-17-38-38s17-38 38-38 38,17 38,38-17,38-38,38z" fill="#4C37A8"/>
    <path d="m326.4,147h-123.361c0.096,1-0.039,1.083-0.039,1.5v48.3c0,2.8-2.2,5-5,5-2.7,0-5-2.2-5-5v-48.3c0-0.414 0.267-0.5 0.365-1.5h-3.565c-1.172,0-2.557,0.199-3.673,0.272 0.077,0.347-0.127,0.856-0.127,1.228v48.3c0,2.8-2.3,5-5,5s-5-2.2-5-5v-47.644c-2,0.73-4.307,1.663-6.388,2.768 0.01,0.127 0.388,0.247 0.388,0.376v44.6c0,2.7-2.3,4.9-5,4.9-2.7,0-5-2.2-5-5v-37.069c-9,9.982-13,24.459-13,37.669v14.6h63v-0.297c11-12.91 27.569-21.253 45.9-21.253 18.139,0 34.496,8.55 45.551,20.55h63.549v-15c0-30.1-20-49-38.6-49zm15.6,41.1c0,6.02-4.88,10.9-10.9,10.9h-16.2c-6.02,0-10.9-4.88-10.9-10.9v-16.2c0-6.02 4.88-10.9 10.9-10.9h16.2c6.02,0 10.9,4.88 10.9,10.9v16.2z" fill="#4C37A8"/>
  </g>
</svg>
