<?xml version="1.0" encoding="iso-8859-1"?>
<svg xmlns="http://www.w3.org/2000/svg" xmlns:xlink="http://www.w3.org/1999/xlink" version="1.1" viewBox="0 0 512 512" enable-background="new 0 0 512 512" width="512px" height="512px">
  <g>
    <path d="m338.2,191.3c9.3,0 16.9-7.6 16.9-16.9 0-9.4-7.6-17-16.9-17s-16.9,7.6-17,17c0,9.3 7.6,16.9 17,16.9z" fill="#4C37A8"/>
    <path d="m374,0h-236c-76.2,0-138,61.8-138,138v236c0,76.2 61.8,138 138,138h236c76.2,0 138-61.8 138-138v-236c0-76.2-61.8-138-138-138zm-1.9,293.1c-4.2,42.1-54.2,75.5-115.2,75.5-60.6,0-110.4-32.9-115.2-74.7-11.8-7-19.7-20-19.7-34.9 0-22.3 17.6-40.5 39.2-40.5 7.9,0 15.2,2.4 21.3,6.5-0.3,0.3-0.6,0.5-1,0.8 18.2-11.1 41.4-18.2 66.9-19.5l20.4-58.5 43.7,10.5c5.4-8.7 14.9-14.6 25.9-14.6 16.9,0 30.6,13.7 30.6,30.6s-13.8,30.6-30.6,30.6c-16.9,0-30.6-13.8-30.6-30.6 0-1 0.2-2 0.3-3l-30.6-7.3-14.8,42.4c25.6,0.9 49,7.6 67.6,18.4 6-3.8 13-6.1 20.6-6.1 21.6,0 39.2,18.2 39.2,40.5 5.68434e-14,14.3-7.3,26.9-18,33.9z" fill="#4C37A8"/>
    <path d="m169.8,234c-2.7-1-5.6-1.7-8.7-1.7-14.1,0-25.6,12.1-25.6,26.8 0,6.9 2.5,13.2 6.6,18 3-16.4 12.9-31.2 27.7-43.1z" fill="#4C37A8"/>
    <path d="m350.9,232.3c-2.7,0-5.2,0.6-7.7,1.4 14.5,11.6 24.5,26 27.8,42 3.4-4.6 5.5-10.3 5.5-16.5 0-14.8-11.5-26.9-25.6-26.9z" fill="#4C37A8"/>
    <path d="m256.7,219.8c-56.3,0-102.1,30.4-102.1,67.7s45.8,67.7 102.1,67.7 102-30.4 102-67.7-45.7-67.7-102-67.7zm-58.7,54c0-9.996 8.104-18.1 18.1-18.1 9.996,0 18.1,8.104 18.1,18.1 0,9.996-8.104,18.1-18.1,18.1-9.996-5.68434e-14-18.1-8.104-18.1-18.1zm100.4,51.6c-15.5,10.3-30.3,13.7-43,13.7-25.6,0-43.2-13.9-43.5-14.1-2.9-2.4-3.3-6.7-1-9.6 2.3-2.9 6.6-3.4 9.5-1 1.3,1.1 32.2,24.9 70.5-0.4 3.1-2.1 7.3-1.2 9.4,2 2.1,3.1 1.2,7.3-1.9,9.4zm-4.6-33.5c-9.996,0-18.1-8.104-18.1-18.1 0-9.996 8.104-18.1 18.1-18.1 9.996,0 18.1,8.104 18.1,18.1-5.68434e-14,9.996-8.104,18.1-18.1,18.1z" fill="#4C37A8"/>
  </g>
</svg>
